General


Format : MPEG-4
Format profile : Base Media
Codec ID : isom
File size : 131 MiB
Duration : 4mn 44s
Overall bit rate : 3 867 Kbps
Encoded date : UTC 2012-02-03 16:21:53
Tagged date : UTC 2012-02-03 16:21:53

Video
ID : 1
Format : AVC
Format/Info : Advanced Video Codec
Format profile : High@L3.0
Format settings, CABAC : Yes
Format settings, ReFrames : 2 frames
Format settings, GOP : M=1, N=5
Codec ID : avc1
Codec ID/Info : Advanced Video Coding
Duration : 4mn 44s
Bit rate mode : Variable
Bit rate : 3 849 Kbps
Maximum bit rate : 20.9 Mbps
Width : 720 pixels
Height : 480 pixels
Display aspect ratio : 16:9
Original display aspect ratio : 16:9
Frame rate mode : Constant
Frame rate : 23.976 fps
Standard : NTSC
Color space : YUV
Chroma subsampling : 4:2:0
Bit depth : 8 bits
Scan type : Progressive
Bits/(Pixel*Frame) : 0.465
Stream size : 129 MiB (98%)


Audio
ID : 2
Format : AAC
Format/Info : Advanced Audio Codec
Format profile : LC
Codec ID : 40
Duration : 4mn 44s
Bit rate mode : Variable
Bit rate : 66.15 Kbps
Maximum bit rate : 79.9 Kbps
Channel(s) : 2 channels
Channel positions : Front: L R
Sampling rate : 44.1 KHz
Compression mode : Lossy
Stream size : 2.24 MiB (2%) 